# xmcd CD database file
#
# Track frame offsets:
#	150
#	31166
#	45029
#	76394
#	93364
#	115717
#	134692
#	160567
#	178315
#	205114
#	222142
#	248571
#	265304
#	289131
#	303377
#
# Disc length: 4428 seconds
#
# Revision: 1
# Processed by: cddbd v1.5.2PL0 Copyright (c) Steve Scherf et al.
# Submitted via: CDex 1.79
#
DISCID=c4114a0f
DTITLE=Varios Artistas - Boomerang Disc 1
DYEAR=2008
DGENRE=Dance
TTITLE0=Maria Magdalena (remix) - Sandra
TTITLE1=Dance little lady dance - Tina Charles
TTITLE2=Voyage voyage - Desirelees
TTITLE3=Big in japan - Alphaville
TTITLE4=Zodioac ( remix ) - Roberta Kelly
TTITLE5=Little respect - Erasure
TTITLE6=Gonna get along without you now ( remix ) - Viola Wills
TTITLE7=Self control - Laura Branigan
TTITLE8=Born to be alive ( remix ) - Patrick Hernades
TTITLE9=Just an illusion - Imagonation
TTITLE10=I will survivor ( remix ) - Gloria Gaynor
TTITLE11=Dancing queen - Abba
TTITLE12=Nice and slow - Jesse Green
TTITLE13=Let's all chant - Michael Zangger Band
TTITLE14=The promisse ( remix ) - Anberlin
EXTD=YEAR: 2008
EXTT0=
EXTT1=
EXTT2=
EXTT3=
EXTT4=
EXTT5=
EXTT6=
EXTT7=
EXTT8=
EXTT9=
EXTT10=
EXTT11=
EXTT12=
EXTT13=
EXTT14=
PLAYORDER=
